<?xml version="1.0" encoding="UTF-8" standalone="no"?>
<svg
   xmlns:dc="http://purl.org/dc/elements/1.1/"
   xmlns:cc="http://creativecommons.org/ns#"
   xmlns:rdf="http://www.w3.org/1999/02/22-rdf-syntax-ns#"
   xmlns:svg="http://www.w3.org/2000/svg"
   xmlns="http://www.w3.org/2000/svg"
   xmlns:sodipodi="http://sodipodi.sourceforge.net/DTD/sodipodi-0.dtd"
   xmlns:inkscape="http://www.inkscape.org/namespaces/inkscape"
   version="1.1"
   x="0px"
   y="0px"
   viewBox="0 0 90 22"
   enable-background="new 0 0 100 100"
   xml:space="preserve"
   id="svg3390"
   inkscape:version="0.91 r13725"
   sodipodi:docname="logo.svg"
   width="90"
   height="22"><metadata
     id="metadata3404"><rdf:RDF><cc:Work
         rdf:about=""><dc:format>image/svg+xml</dc:format><dc:type
           rdf:resource="http://purl.org/dc/dcmitype/StillImage" /><dc:title></dc:title></cc:Work></rdf:RDF></metadata><defs
     id="defs3402" /><sodipodi:namedview
     pagecolor="#ffffff"
     bordercolor="#666666"
     borderopacity="1"
     objecttolerance="10"
     gridtolerance="10"
     guidetolerance="10"
     inkscape:pageopacity="0"
     inkscape:pageshadow="2"
     inkscape:window-width="1440"
     inkscape:window-height="851"
     id="namedview3400"
     showgrid="false"
     inkscape:zoom="7.664"
     inkscape:cx="45.39645"
     inkscape:cy="5.0887266"
     inkscape:window-x="0"
     inkscape:window-y="1"
     inkscape:window-maximized="1"
     inkscape:current-layer="g4384" /><g
     id="g4384"
     transform="translate(4.0448851,2.3079332)"><g
       inkscape:export-ydpi="637.31927"
       inkscape:export-xdpi="637.31927"
       id="g3591"
       transform="matrix(0.8663446,-0.16840032,0.16840032,0.8663446,-63.55793,-32.835491)"
       style="fill:#ffffff;fill-opacity:1" /><g
       inkscape:export-ydpi="637.31927"
       inkscape:export-xdpi="637.31927"
       style="fill:#ffffff;fill-opacity:1"
       transform="matrix(0.88165595,-0.16818485,0.16818485,0.88165595,-58.801551,-36.481401)"
       id="g4441" /><g
       id="g4176"
       transform="translate(2.2181628,1.565762)"
       inkscape:export-filename="/Users/ed/assemblyline/github-status-everywhere/images/al38.png"
       inkscape:export-xdpi="213.75"
       inkscape:export-ydpi="213.75"><rect
         ry="1.3022019"
         y="-0.87473917"
         x="-1.8267223"
         height="16"
         width="16"
         id="rect4174"
         style="opacity:0.98000004;fill:#607d8b;fill-opacity:1;stroke:none;stroke-width:0.34099999;stroke-linecap:square;stroke-linejoin:miter;stroke-miterlimit:4;stroke-dasharray:none" /><path
         inkscape:connector-curvature="0"
         id="path3528"
         style="font-style:normal;font-variant:normal;font-weight:normal;font-stretch:normal;font-size:12.86062527px;line-height:125%;font-family:Montserrat;-inkscape-font-specification:Montserrat;letter-spacing:0px;word-spacing:0px;fill:#ffffff;fill-opacity:1;stroke:none;stroke-width:1px;stroke-linecap:butt;stroke-linejoin:miter;stroke-opacity:1"
         d="m 6.157847,11.578642 0.8616613,2.031979 1.620439,0 -3.935351,-9.0024379 -1.5561356,0 -3.97393318,9.0024379 1.5818569,0 0.86166188,-2.031979 4.5398007,0 z m -0.5787281,-1.350366 -3.3952051,0 1.6976025,-3.9996539 1.6976026,3.9996539 z"
         inkscape:export-xdpi="637.31927"
         inkscape:export-ydpi="637.31927" /><path
         style="font-style:normal;font-variant:normal;font-weight:normal;font-stretch:normal;font-size:12.86062527px;line-height:125%;font-family:Montserrat;-inkscape-font-specification:Montserrat;letter-spacing:0px;word-spacing:0px;fill:#ffffff;fill-opacity:1;stroke:none;stroke-width:1px;stroke-linecap:butt;stroke-linejoin:miter;stroke-opacity:1"
         d="m 10.768149,0.69706625 c -0.674303,0.0014 -1.2752471,0.46427405 -1.5136721,0.83007805 -0.376692,0.644855 -0.244382,1.361414 0.398437,1.996093 0.126521,0.116158 0.151502,0.261313 0.158203,0.439454 l 0,0.236328 -0.0039,0 0,9.5429687 1.4804691,0 c -9.99e-4,-3.013641 0.0041,-6.3608267 0.0039,-9.0917967 0.01656,-0.266715 0.12532,-0.505559 0.394531,-0.626954 0.314298,-0.124424 0.593987,-0.360991 0.767579,-0.652343 0.282535,-0.481182 0.246691,-1.350956 -0.230469,-1.925782 l -0.71875,1.222657 c 0,0 -0.34019,0.216468 -0.75,-0.0293 -0.410354,-0.27091 -0.390625,-0.705078 -0.390625,-0.705078 L 11.06307,0.72635925 c -0.09839,-0.02022 -0.198594,-0.02951 -0.294921,-0.0293 z"
         id="path3544"
         inkscape:connector-curvature="0"
         sodipodi:nodetypes="ccccccccccccccccc"
         inkscape:export-xdpi="637.31927"
         inkscape:export-ydpi="637.31927" /></g></g></svg>